<svg viewBox="0 0 32 32" xmlns="http://www.w3.org/2000/svg">
  <rect fill="#e00519" height="32" width="32"/>
  <path fill="#fff" d="m20.337,22.17701a8.316,8.316 0 0 1 -2.666,-0.852c-0.432,-0.219 -1.164,-0.689 -1.383,-0.885l-0.12,-0.104l0.82,-0.951l0.82,-0.951l0.289,0.24c1.17,0.951 2.367,1.356 3.662,1.23c0.956,-0.093 1.52,-0.645 1.339,-1.317c-0.12,-0.454 -0.672,-0.765 -2.017,-1.137c-2.427,-0.667 -3.35,-1.115 -3.88,-1.886c-0.416,-0.6 -0.601,-1.781 -0.416,-2.65a3.532,3.532 0 0 1 1.891,-2.427c0.804,-0.394 1.225,-0.481 2.296,-0.486c0.995,-0.011 1.503,0.065 2.377,0.35c0.847,0.267 2.083,0.967 2.033,1.147c-0.016,0.066 -1.18,1.847 -1.278,1.962c-0.011,0.011 -0.164,-0.06 -0.334,-0.158c-0.612,-0.35 -1.53,-0.77 -1.956,-0.886c-0.552,-0.158 -1.247,-0.17 -1.64,-0.032c-0.47,0.163 -0.732,0.519 -0.732,0.994c0,0.765 0.497,1.071 2.678,1.673c2.732,0.748 3.793,1.792 3.7,3.656c-0.044,0.93 -0.323,1.59 -0.935,2.23c-0.563,0.585 -1.366,1 -2.3,1.191c-0.58,0.115 -1.668,0.142 -2.247,0.05l-0.001,-0.001zm-14.336,-6.109l0,-6.067l9.126,0l0,2.46l-6.449,0l0.01,1.3l0.017,1.296l2.853,0.016l2.858,0.011l0,2.405l-5.738,0l0,4.646l-2.678,0l0,-6.067l0.001,0z"/>
</svg>
